<?xml version="1.0" encoding="utf-8"?>
<!-- Generator: Adobe Illustrator 27.3.1, SVG Export Plug-In . SVG Version: 6.00 Build 0)  -->
<svg version="1.1" id="Layer_1" xmlns="http://www.w3.org/2000/svg" xmlns:xlink="http://www.w3.org/1999/xlink" x="0px" y="0px"
	 viewBox="0 0 300 315.5" style="enable-background:new 0 0 300 315.5;" xml:space="preserve">
<style type="text/css">
	.st0{fill:none;stroke:#5C5C5C;stroke-width:0.2;}
	.st1{fill:#565656;}
	.st2{fill:#FFFFFF;filter:url(#Adobe_OpacityMaskFilter);}
	.st3{mask:url(#mask0_101_105_00000047056023422347266950000012881034007640084618_);}
</style>
<g>
	<path class="st0" d="M150,307.8c82.9,0,150-67.2,150-150s-67.1-150-150-150S0,74.9,0,157.8S67.1,307.8,150,307.8z"/>
	<path class="st1" d="M150,170.8l-37.4-43.6c-2.8-3.2-7.3-3.2-9.9,0c-2.8,3.2-2.8,8.4,0,11.7l42.4,49.5c2.6,3.2,7.3,3.2,9.9,0
		l42.4-49.5c2.8-3.2,2.8-8.4,0-11.7c-2.6-3.2-7.1-3.2-9.9,0L150,170.8z"/>
</g>
<defs>
	<filter id="Adobe_OpacityMaskFilter" filterUnits="userSpaceOnUse">
		<feColorMatrix  type="matrix" values="1 0 0 0 0  0 1 0 0 0  0 0 1 0 0  0 0 0 1 0"/>
	</filter>
</defs>
<mask maskUnits="userSpaceOnUse" id="mask0_101_105_00000047056023422347266950000012881034007640084618_">
	<path class="st2" d="M348.5-42.5l-2.3-2.6c-0.2-0.2-0.4-0.2-0.6,0c-0.2,0.2-0.2,0.5,0,0.7l2.6,3c0.2,0.2,0.4,0.2,0.6,0l2.6-3
		c0.2-0.2,0.2-0.5,0-0.7c-0.2-0.2-0.4-0.2-0.6,0L348.5-42.5z"/>
</mask>
<g class="st3">
</g>
</svg>
