<?xml version="1.0" encoding="utf-8"?>
<!-- Generator: Adobe Illustrator 27.3.1, SVG Export Plug-In . SVG Version: 6.00 Build 0)  -->
<svg version="1.1" id="Layer_1" xmlns="http://www.w3.org/2000/svg" xmlns:xlink="http://www.w3.org/1999/xlink" x="0px" y="0px"
	 viewBox="0 0 300 315.5" style="enable-background:new 0 0 300 315.5;" xml:space="preserve">
<style type="text/css">
	.st0{fill:#FFFFFF;filter:url(#Adobe_OpacityMaskFilter);}
	.st1{mask:url(#mask0_101_105_00000047056023422347266950000012881034007640084618_);}
	.st2{fill-rule:evenodd;clip-rule:evenodd;fill:#554DB7;}
	.st3{opacity:0.3;fill:#554DB7;enable-background:new    ;}
	.st4{fill-rule:evenodd;clip-rule:evenodd;fill:#118F4B;}
	.st5{fill:#FFFFFF;}
</style>
<defs>
	<filter id="Adobe_OpacityMaskFilter" filterUnits="userSpaceOnUse">
		<feColorMatrix  type="matrix" values="1 0 0 0 0  0 1 0 0 0  0 0 1 0 0  0 0 0 1 0"/>
	</filter>
</defs>
<mask maskUnits="userSpaceOnUse" id="mask0_101_105_00000047056023422347266950000012881034007640084618_">
	<path class="st0" d="M348.5-42.5l-2.3-2.6c-0.2-0.2-0.4-0.2-0.6,0c-0.2,0.2-0.2,0.5,0,0.7l2.6,3c0.2,0.2,0.4,0.2,0.6,0l2.6-3
		c0.2-0.2,0.2-0.5,0-0.7c-0.2-0.2-0.4-0.2-0.6,0L348.5-42.5z"/>
</mask>
<g class="st1">
</g>
<g>
	<path class="st2" d="M103.8,51.7c-23.8,0-43.7,17.8-46.2,41.4l-11,98.2h-31c-8.6,0-15.5,6.9-15.5,15.5v15.5
		c0,8.6,6.9,15.5,15.5,15.5h217.2c8.6,0,15.5-6.9,15.5-15.5v-15.5c0-8.6-6.9-15.5-15.5-15.5h-31l-11-98.2
		c-2.6-23.6-22.4-41.4-46.2-41.4H103.8z"/>
	<path class="st3" d="M116.4,253.4h15.5c12.9,0,23.3,10.4,23.3,23.3v15.5c0,12.9-10.4,23.3-23.3,23.3h-15.5
		c-12.9,0-23.3-10.4-23.3-23.3v-15.5C93.1,263.9,103.5,253.4,116.4,253.4z"/>
	<path class="st4" d="M217.2,165.5c45.7,0,82.8-37.1,82.8-82.8S263,0,217.2,0s-82.8,37.1-82.8,82.8S171.5,165.5,217.2,165.5z"/>
	<path class="st5" d="M216.3,125.4c-10.9,0-19.2-3.8-25.1-11.4c-5.9-7.6-8.9-18.3-8.9-32c0-14.8,3.3-26.3,9.9-34.4
		c6.7-8.1,15.9-12.2,27.7-12.2c4.7,0,9.2,0.9,13.8,2.6c4.6,1.7,8.5,4.1,11.7,7.2l-5.2,11.9c-3.1-2.8-6.4-4.9-9.8-6.2
		c-3.5-1.4-7-2.1-10.7-2.1c-7.2,0-12.7,2.5-16.6,7.6c-3.8,5-5.7,12.6-5.7,22.6v3.6c1.8-4.6,4.6-8.1,8.4-10.7
		c3.9-2.6,8.4-3.8,13.4-3.8s9.5,1.2,13.4,3.6c3.8,2.4,6.9,5.7,9.1,9.9c2.3,4.2,3.4,9.1,3.4,14.5c0,5.6-1.2,10.7-3.7,15.1
		c-2.4,4.4-5.8,7.9-10.2,10.4C227.1,124.1,222,125.4,216.3,125.4z M215.5,112.7c4.4,0,8.1-1.4,10.8-4.3c2.8-3,4.2-6.9,4.2-11.7
		c0-4.8-1.4-8.7-4.2-11.7c-2.7-3-6.3-4.5-10.8-4.5c-4.4,0-8.2,1.5-11,4.5c-2.7,3-4,6.9-4,11.7c0,4.8,1.3,8.7,4,11.7
		C207.3,111.3,211,112.7,215.5,112.7z"/>
</g>
</svg>
